<?xml version="1.0" standalone="no"?>
<!DOCTYPE svg PUBLIC "-//W3C//DTD SVG 20010904//EN"
 "http://www.w3.org/TR/2001/REC-SVG-20010904/DTD/svg10.dtd">
<svg version="1.0" xmlns="http://www.w3.org/2000/svg"
 width="300.000000pt" height="300.000000pt" viewBox="0 0 300.000000 300.000000"
 preserveAspectRatio="xMidYMid meet">
<metadata>
Created by potrace 1.11, written by Peter Selinger 2001-2013
</metadata>
<g transform="translate(0.000000,300.000000) scale(0.100000,-0.100000)"
fill="#000000" stroke="none">
<path d="M513 2639 c-52 -26 -88 -67 -122 -139 l-26 -55 -3 -1107 -2 -1108
180 0 180 0 0 520 0 520 259 0 c144 0 271 4 285 10 47 17 112 88 142 153 l29
62 3 443 c3 379 1 451 -13 504 -20 79 -64 147 -117 184 l-41 29 -356 3 c-346
2 -357 2 -398 -19z m538 -458 c24 -19 24 -20 24 -241 0 -281 16 -260 -202
-260 l-154 0 3 241 c4 299 -9 279 178 279 111 0 131 -3 151 -19z"/>
<path d="M1785 2646 c-67 -30 -126 -110 -150 -202 -14 -54 -15 -177 -13 -1025
l3 -964 29 -62 c30 -65 95 -136 142 -153 15 -6 169 -10 367 -10 310 0 346 2
382 19 50 22 90 68 124 141 26 55 26 56 29 353 l3 297 -180 0 -181 0 0 -150
c0 -147 -1 -152 -25 -175 -23 -24 -30 -25 -149 -25 -118 0 -127 1 -153 24
l-28 24 0 707 0 707 28 24 c26 23 35 24 153 24 119 0 126 -1 149 -25 24 -23
25 -29 25 -165 l0 -140 181 0 180 0 -3 293 -3 292 -27 51 c-38 72 -72 109
-121 133 -41 20 -59 21 -388 21 -264 -1 -351 -4 -374 -14z"/>
</g>
</svg>
